<?xml version="1.0" standalone="no"?>
<!DOCTYPE svg PUBLIC "-//W3C//DTD SVG 20010904//EN"
 "http://www.w3.org/TR/2001/REC-SVG-20010904/DTD/svg10.dtd">
<svg version="1.0" xmlns="http://www.w3.org/2000/svg"
 width="1000.000000pt" height="1000.000000pt" viewBox="0 0 1000.000000 1000.000000"
 preserveAspectRatio="xMidYMid meet">
<metadata>
Created by potrace 1.14, written by Peter Selinger 2001-2017
</metadata>
<g transform="translate(0.000000,1000.000000) scale(0.100000,-0.100000)"
fill="#000000" stroke="none">
<path d="M370 9974 c-153 -23 -229 -73 -275 -178 -15 -33 -33 -74 -40 -91 -27
-61 -37 -184 -26 -304 11 -104 27 -177 115 -501 31 -116 194 -606 300 -904 26
-71 56 -170 67 -220 28 -125 41 -339 28 -446 -14 -115 -68 -481 -74 -501 -3
-8 -14 -83 -24 -165 -15 -119 -17 -168 -10 -235 40 -360 173 -797 356 -1164
133 -266 306 -480 578 -714 61 -52 114 -98 119 -102 4 -4 -7 -23 -26 -41 -70
-71 -108 -125 -108 -155 0 -51 14 -54 108 -22 47 16 89 29 94 29 4 0 8 -22 8
-49 0 -51 0 -51 -103 -142 -40 -36 -65 -100 -72 -189 -5 -60 31 -135 96 -199
48 -47 196 -141 222 -141 8 0 17 -3 21 -8 4 -4 12 -8 17 -8 5 -1 10 -2 12 -4
1 -1 11 -4 22 -6 26 -6 49 -12 55 -14 3 -1 10 -3 15 -5 6 -1 12 -3 15 -4 6 -3
38 -11 70 -17 14 -3 34 -7 45 -9 11 -3 34 -7 50 -9 79 -12 78 -9 39 -126 -48
-147 -79 -272 -108 -440 -14 -80 -45 -226 -70 -325 -25 -99 -57 -243 -71 -320
-15 -77 -39 -194 -55 -260 -15 -66 -42 -194 -60 -285 -17 -91 -63 -286 -101
-435 -39 -148 -100 -387 -135 -530 -64 -257 -118 -441 -135 -459 -5 -6 -9 -19
-9 -29 0 -22 87 -127 105 -127 7 0 68 29 136 64 370 193 875 341 1252 366 76
6 143 12 147 15 10 6 73 -87 106 -156 25 -53 119 -133 177 -151 61 -19 140 4
196 57 45 42 48 43 88 35 64 -15 402 -51 623 -67 111 -8 135 -23 144 -94 5
-38 15 -59 36 -80 34 -34 36 -35 131 -9 41 11 81 20 90 20 9 0 43 -27 75 -60
57 -58 61 -60 111 -60 43 0 54 4 64 21 16 32 -1 121 -45 229 -5 13 26 15 251
15 l258 0 -27 -80 c-27 -78 -34 -137 -22 -169 5 -12 20 -16 58 -16 45 0 56 4
82 31 16 17 46 44 67 61 l38 30 95 -23 94 -23 28 21 c20 14 31 36 42 81 21 85
34 95 133 104 321 28 590 55 617 62 8 3 25 7 36 11 16 4 32 -4 63 -34 42 -40
115 -71 168 -71 31 0 76 23 140 74 40 31 61 59 93 121 62 121 66 125 120 115
25 -5 77 -9 116 -10 93 0 265 -30 491 -85 275 -68 528 -162 752 -280 68 -36
131 -65 140 -65 9 0 35 24 59 54 40 52 52 91 33 112 -10 10 -51 144 -74 239
-8 33 -43 166 -77 295 -101 385 -179 705 -215 880 -19 91 -49 235 -68 320 -19
85 -47 219 -61 297 -15 77 -45 210 -66 295 -21 84 -51 216 -65 293 -32 177
-58 283 -101 412 -19 56 -34 106 -34 111 0 10 34 22 75 28 28 3 65 11 95 19
14 4 32 8 40 9 9 1 21 5 28 10 6 4 12 4 12 0 0 -3 7 -1 15 6 9 7 18 10 22 7 3
-4 12 -2 20 4 7 6 13 8 13 4 0 -4 6 -3 13 3 7 6 25 13 40 16 16 3 67 27 114
53 64 36 102 66 149 119 78 87 92 134 68 234 -18 78 -44 122 -89 150 -58 36
-85 76 -85 127 l0 45 33 -7 c17 -4 55 -16 82 -26 52 -20 91 -24 98 -11 3 4 2
24 -2 44 -4 26 -25 58 -70 109 l-65 72 35 31 c19 17 88 78 152 134 254 226
385 397 533 697 171 349 316 832 340 1132 7 88 -7 248 -36 413 -71 400 -88
544 -79 683 11 161 28 247 83 408 l51 152 47 14 c67 19 98 62 98 135 0 43 -6
64 -26 93 l-25 38 18 50 c15 41 24 52 51 61 90 31 142 172 92 254 -18 29 -19
38 -9 77 10 39 15 45 38 45 79 0 119 149 60 224 -19 24 -19 25 7 133 43 180
43 428 0 496 -8 12 -19 38 -25 58 -6 20 -25 57 -41 83 -39 61 -123 100 -256
120 -79 12 -106 12 -191 0 -161 -23 -185 -29 -268 -68 -192 -91 -446 -184
-600 -220 -65 -15 -160 -42 -605 -175 -206 -62 -531 -180 -718 -261 -319 -139
-635 -369 -1022 -744 -105 -101 -122 -123 -192 -246 -189 -331 -282 -610 -295
-880 -6 -117 -14 -150 -36 -150 -7 0 -53 -20 -102 -45 -102 -51 -95 -48 -95
-34 0 6 -25 55 -55 109 -41 73 -70 110 -117 152 -115 100 -145 110 -126 40 18
-65 -4 -252 -29 -252 -5 0 -18 18 -30 39 -39 69 -146 182 -168 179 -19 -3 -20
-10 -18 -122 l2 -118 -37 5 c-39 7 -156 30 -232 46 -114 25 -169 4 -156 -60 6
-30 5 -31 -22 -26 -124 22 -182 29 -196 24 -11 -4 -16 -18 -16 -44 0 -23 -4
-33 -9 -27 -6 5 -13 79 -16 164 -8 194 -40 362 -106 564 -47 142 -115 293
-179 396 -15 25 -46 77 -68 116 -32 56 -74 101 -200 220 -393 369 -638 545
-961 689 -119 53 -540 215 -559 215 -6 0 -111 31 -234 69 -399 123 -493 150
-563 165 -132 28 -352 109 -557 205 -49 22 -121 47 -160 55 -73 15 -224 37
-236 35 -4 -1 -45 -7 -92 -15z m12 -166 c18 18 59 14 96 -8 18 -11 40 -20 50
-20 18 0 52 -33 52 -50 0 -5 10 -18 22 -30 l22 -20 -32 -6 c-39 -8 -42 -24 -4
-24 15 0 32 -4 37 -8 10 -8 127 -34 170 -37 21 -2 36 -45 16 -45 -6 0 -11 5
-11 12 0 6 -3 9 -6 5 -7 -7 7 -34 21 -39 6 -2 10 -8 10 -15 0 -20 13 -25 55
-25 35 1 40 -1 29 -14 -6 -8 -10 -14 -8 -15 32 -6 44 -6 58 0 66 33 111 31
111 -4 0 -7 17 -15 39 -18 21 -2 48 -14 60 -26 12 -12 26 -21 33 -21 21 0 -5
-18 -32 -22 -15 -2 -24 -9 -22 -17 2 -7 -7 -20 -19 -29 -26 -18 -10 -32 39
-32 31 0 42 -12 22 -25 -17 -11 -11 -25 10 -25 14 0 20 -6 18 -17 -2 -14 8
-20 40 -28 43 -11 47 -24 8 -26 -12 -1 8 -7 43 -15 65 -14 88 -24 58 -24 -9 0
-17 -5 -17 -11 0 -7 21 -8 64 -4 42 5 66 3 70 -4 5 -7 48 -9 129 -6 l122 4
-81 -13 c-160 -27 -462 -108 -524 -141 -31 -17 -113 -52 -164 -71 -53 -19
-195 -115 -202 -136 -6 -21 -113 -98 -135 -98 -20 0 -43 -25 -35 -38 5 -8 -72
-79 -78 -71 -1 2 -8 17 -15 34 l-13 29 -33 -52 -33 -53 -21 27 c-26 32 -35 65
-29 99 4 19 1 25 -13 25 -20 0 -49 84 -49 144 0 20 -4 36 -9 36 -6 0 -8 25 -5
56 3 39 1 53 -8 48 -8 -5 -9 1 -4 20 5 20 4 26 -5 20 -9 -5 -10 -2 -5 11 7 19
-18 55 -39 55 -12 0 -13 3 -18 52 -2 15 -9 33 -15 41 -7 8 -20 48 -31 90 -10
42 -29 97 -41 122 l-22 46 28 97 c33 115 111 258 138 255 10 0 15 4 13 11 -3
6 3 12 13 12 10 0 16 -4 13 -9 -3 -5 0 -7 8 -5 8 3 13 11 11 18 -2 7 0 20 3
28 4 12 8 12 21 2 11 -10 18 -10 26 -2z m9256 0 c9 -9 15 -9 24 0 7 7 16 12
20 12 11 0 10 -34 -2 -46 -6 -6 -3 -10 10 -11 11 -1 18 2 16 6 -3 4 2 8 10 8
23 0 83 -74 115 -143 15 -33 40 -102 55 -152 l26 -92 -21 -26 c-12 -15 -21
-34 -21 -43 0 -10 -4 -21 -9 -27 -5 -5 -14 -35 -20 -67 -6 -32 -17 -67 -25
-79 -8 -11 -12 -26 -9 -34 2 -7 -2 -23 -10 -35 l-16 -22 -20 34 c-12 19 -26
50 -32 69 -7 19 -16 41 -22 48 -16 20 -46 14 -51 -10 -19 -92 -9 -140 39 -204
22 -28 28 -47 29 -92 0 -34 -4 -62 -11 -70 -7 -7 -13 -30 -13 -50 0 -43 -23
-115 -38 -120 -21 -7 -57 59 -67 121 -10 61 -11 62 -40 59 -43 -5 -55 -22 -62
-84 -4 -42 -1 -65 15 -101 20 -45 20 -49 4 -76 l-16 -29 -38 31 c-21 17 -38
39 -38 49 0 19 -5 22 -52 32 -14 3 -55 34 -90 68 -72 72 -169 141 -225 162
-21 7 -76 30 -123 51 -146 64 -331 117 -545 156 l-100 18 122 -4 c80 -3 124
-1 128 6 5 7 29 8 71 4 45 -5 64 -4 64 4 0 6 -10 11 -22 11 -31 0 -16 11 24
17 61 9 104 21 81 22 -28 1 -41 21 -13 21 32 0 60 18 54 35 -4 10 0 15 15 15
22 0 28 14 11 25 -19 11 1 25 35 25 42 0 52 14 25 33 -12 8 -20 21 -18 28 2 8
-7 15 -22 17 -39 6 -46 20 -16 32 15 5 25 14 22 19 -6 9 40 21 80 21 14 0 24
6 24 14 0 27 24 36 60 23 19 -7 40 -15 46 -19 8 -6 20 -5 53 1 2 1 -2 8 -9 16
-10 12 -5 14 34 13 25 0 52 4 59 11 8 6 18 7 22 3 5 -4 5 -1 1 6 -4 7 -12 9
-18 6 -6 -4 -9 -1 -6 7 3 8 10 15 16 15 25 3 26 6 4 15 -18 7 -21 13 -14 26 6
9 18 18 28 19 30 3 135 25 182 37 43 12 57 27 24 27 -27 0 -34 11 -18 29 8 9
16 22 18 30 5 21 36 51 53 51 8 0 29 9 47 20 37 22 88 26 106 8z m-8778 -224
c0 -8 -4 -12 -10 -9 -5 3 -10 10 -10 16 0 5 5 9 10 9 6 0 10 -7 10 -16z m8320
7 c0 -6 -4 -13 -10 -16 -5 -3 -10 1 -10 9 0 9 5 16 10 16 6 0 10 -4 10 -9z
m-7980 -243 c0 -4 -6 -8 -14 -8 -8 0 -17 4 -20 8 -2 4 4 8 15 8 10 0 19 -4 19
-8z m7644 0 c-7 -11 -34 -10 -34 1 0 6 9 9 19 8 11 0 17 -5 15 -9z m-7031
-228 c22 0 27 -4 27 -25 0 -25 10 -30 55 -27 15 2 17 0 6 -7 -17 -11 -7 -41
14 -41 8 0 15 -5 15 -11 0 -7 8 -18 18 -25 16 -13 16 -14 -5 -20 -13 -3 -23
-10 -23 -15 0 -5 7 -6 15 -3 43 17 157 -26 124 -46 -19 -12 -2 -41 31 -53 17
-6 29 -15 27 -20 -4 -14 56 -74 83 -82 35 -10 50 -24 44 -40 -4 -8 7 -20 26
-30 66 -34 123 -127 68 -109 l-23 6 24 -25 c13 -15 40 -31 60 -38 20 -6 50
-17 68 -25 17 -8 38 -14 46 -14 8 0 35 -22 61 -50 40 -43 45 -52 35 -69 -21
-32 23 -72 146 -130 61 -29 117 -57 125 -62 8 -5 24 -13 35 -18 11 -5 36 -23
55 -40 26 -22 31 -30 18 -31 -10 0 -18 -2 -18 -4 0 -2 -7 -20 -15 -39 -15 -35
-14 -36 27 -88 l41 -52 -24 -18 c-13 -10 -28 -19 -33 -19 -5 0 -1 -9 10 -21
19 -21 18 -21 -5 -40 -13 -10 -18 -19 -13 -19 6 0 17 6 24 13 10 12 25 4 85
-41 61 -46 70 -57 58 -68 -20 -20 -28 -17 -46 14 -14 25 -99 81 -99 66 0 -4
-11 1 -25 10 -13 9 -30 16 -38 16 -7 0 -24 18 -37 40 -14 22 -31 40 -37 40
-18 0 -16 -10 7 -45 11 -16 20 -26 20 -22 0 4 16 -4 36 -20 20 -15 46 -28 58
-30 43 -6 65 -24 64 -55 -1 -19 -4 -25 -9 -16 -4 7 -11 9 -16 5 -7 -8 121
-137 136 -137 4 0 16 -9 27 -21 10 -12 40 -32 67 -45 38 -20 47 -29 47 -51 0
-21 -3 -24 -12 -15 -7 7 -16 12 -20 12 -4 0 1 -9 12 -20 19 -19 25 -42 21 -82
-1 -9 2 -19 8 -22 9 -6 -9 -80 -29 -117 -10 -19 -3 -79 11 -93 11 -12 12 -53
0 -60 -4 -3 -17 1 -27 9 -27 20 -34 18 -34 -10 0 -14 -5 -24 -12 -23 -7 2 -12
-2 -13 -9 0 -19 -12 -25 -34 -18 -12 3 -21 13 -21 21 0 8 -4 12 -10 9 -5 -3
-10 -15 -10 -27 0 -18 -5 -20 -50 -16 -28 1 -50 0 -50 -4 0 -14 -47 -8 -60 7
-9 11 -22 14 -42 10 -26 -6 -28 -4 -28 22 0 35 -58 97 -82 88 -11 -4 -16 -1
-15 11 1 11 -18 30 -57 53 -67 40 -152 52 -209 31 -39 -15 -64 -24 -98 -38
-20 -8 -37 -7 -65 3 -56 19 -318 65 -369 65 -57 0 -179 -26 -208 -44 -12 -8
-42 -17 -67 -21 -25 -3 -53 -9 -62 -11 -22 -7 -68 -83 -68 -113 0 -13 -13 -59
-29 -104 -16 -45 -32 -101 -36 -124 -4 -29 -13 -44 -26 -48 -15 -5 -18 -12
-13 -28 4 -12 8 -40 8 -62 1 -31 -3 -39 -14 -38 -18 3 -26 -43 -10 -62 9 -11
0 -55 -22 -98 -5 -10 -6 -22 -3 -27 4 -6 1 -10 -5 -10 -6 0 -9 -4 -6 -9 3 -4
-3 -16 -14 -26 -24 -21 -26 -35 -5 -35 11 0 13 -8 8 -32 -3 -18 -9 -39 -13
-47 -5 -9 0 -25 12 -42 11 -15 23 -42 27 -60 5 -24 17 -40 40 -54 34 -21 118
-95 106 -95 -3 0 -3 -6 2 -12 4 -7 8 -17 8 -23 1 -17 35 -89 46 -95 5 -4 12
-20 15 -35 3 -16 9 -34 13 -40 8 -10 31 -103 52 -210 6 -33 17 -77 25 -98 27
-74 15 -461 -15 -443 -4 3 -6 -14 -5 -37 2 -50 -3 -67 -22 -67 -17 0 -18 -32
-2 -48 8 -8 5 -14 -16 -21 -26 -11 -26 -11 -11 -47 14 -34 14 -36 -3 -29 -9 4
-21 8 -27 9 -5 1 -22 10 -38 20 -22 15 -30 16 -43 5 -8 -7 -13 -21 -11 -31 7
-27 -21 -23 -49 7 -13 14 -31 25 -40 25 -10 0 -15 -3 -12 -6 6 -6 -45 -61 -77
-84 -17 -12 -17 -11 3 11 33 37 28 58 -6 26 -31 -29 -42 -27 -42 9 0 28 -18
41 -26 20 -11 -28 -40 -17 -69 24 -15 22 -32 40 -36 40 -5 0 -9 14 -9 30 0 32
-14 40 -24 13 -6 -14 -8 -14 -19 -2 -34 41 -55 51 -79 39 -22 -11 -22 -10 -3
5 19 15 19 16 -3 37 -12 13 -22 17 -22 10 0 -7 5 -12 11 -12 5 0 7 -4 4 -10
-11 -19 -25 -10 -59 37 -38 52 -39 87 -5 131 9 12 15 31 12 41 -3 10 0 22 6
25 7 5 9 0 5 -11 -5 -17 -5 -17 6 0 9 13 8 21 -3 32 -13 12 -16 11 -21 -8 -3
-12 -6 -34 -6 -49 0 -33 -9 -35 -33 -8 -9 11 -14 20 -10 20 4 0 -1 6 -11 13
-17 13 -17 14 -2 20 18 7 16 51 -4 71 -13 13 -13 66 1 66 5 0 7 5 3 12 -5 7
-3 8 5 4 7 -5 10 -15 7 -23 -5 -11 -1 -13 15 -8 15 5 19 4 15 -4 -4 -6 3 -15
17 -20 26 -10 41 -36 38 -63 -5 -37 8 -16 24 40 13 42 16 81 13 150 l-5 93 24
-5 c16 -5 22 -2 21 6 -2 8 6 12 21 10 19 -2 22 1 16 15 -4 10 -11 32 -16 48
-20 67 -41 93 -80 99 -21 3 -49 2 -64 -4 -55 -21 -125 -6 -125 26 0 12 -7 14
-29 9 -16 -3 -32 -2 -35 4 -9 13 22 41 39 35 18 -7 31 23 29 65 -3 44 -19 60
-33 32 -7 -12 -17 -21 -23 -21 -7 0 -7 4 1 14 8 10 9 16 1 21 -6 3 -8 10 -5
15 3 5 1 11 -5 15 -6 4 -8 10 -5 15 3 5 1 11 -4 14 -5 3 -7 14 -4 25 3 13 -5
22 -31 35 -20 9 -40 25 -46 35 -10 20 -6 179 6 190 4 3 4 -13 1 -36 -3 -25 -1
-46 5 -49 6 -4 8 -24 5 -45 -3 -22 -1 -39 4 -39 5 0 9 18 9 41 0 22 4 38 9 35
5 -3 11 3 14 14 5 21 27 28 27 9 0 -6 9 -8 21 -4 15 5 22 2 26 -14 10 -37 31
-18 24 22 -1 5 3 6 9 2 5 -3 10 -13 10 -21 0 -20 13 -17 28 7 10 16 10 20 0
17 -7 -1 -23 4 -36 11 -21 11 -23 17 -17 52 6 35 5 39 -14 39 -19 0 -20 -3
-11 -21 13 -24 5 -38 -12 -21 -8 8 -15 9 -25 1 -9 -8 -17 -8 -26 0 -8 6 -17 8
-21 4 -4 -4 -4 0 0 10 7 19 -6 23 -24 5 -8 -8 -15 -8 -26 1 -13 11 -18 10 -31
-3 -9 -9 -19 -16 -23 -16 -25 1 -51 53 -47 93 6 56 77 225 102 244 9 7 17 21
18 30 0 10 4 23 8 30 4 6 -2 22 -13 36 -23 28 -26 62 -8 73 9 6 5 10 -12 14
-14 3 -26 12 -26 20 -1 8 -2 21 -3 28 -1 15 -37 16 -46 1 -4 -6 -14 -8 -22 -5
-9 4 -21 2 -27 -3 -38 -32 -36 24 14 324 19 118 24 132 51 157 31 29 31 48 0
48 -16 0 -18 11 -18 100 -1 55 -9 154 -18 219 -17 115 -17 119 1 138 67 72 65
97 -6 87 -42 -5 -48 -4 -52 14 -3 11 -1 25 5 31 8 8 7 11 -4 11 -10 0 -28 38
-56 114 l-41 115 23 81 c13 44 36 99 51 122 33 47 256 245 294 259 14 6 34 20
45 33 31 36 118 87 285 169 206 101 361 150 511 163 41 3 83 12 95 19 11 7 31
15 45 17 l24 3 -22 19 c-12 11 -20 23 -17 27 2 4 -5 10 -16 14 -28 9 -26 29 3
21 12 -3 34 -6 50 -6z m6432 -27 c-19 -20 -35 -39 -35 -42 0 -13 106 -41 190
-50 47 -5 138 -26 203 -46 106 -32 138 -45 242 -97 17 -8 61 -30 99 -49 74
-36 192 -113 304 -197 50 -37 199 -171 229 -206 34 -38 55 -74 68 -116 7 -23
6 -24 -10 -10 -9 8 -30 38 -47 66 -33 60 -47 68 -77 48 -48 -34 -15 -129 77
-223 l60 -61 -30 -78 c-16 -42 -34 -79 -39 -80 -5 -2 -7 -8 -3 -13 3 -5 2 -19
-1 -30 -6 -19 -12 -21 -56 -15 -62 8 -65 -8 -14 -70 l35 -43 -16 -103 c-9 -57
-17 -154 -17 -215 -2 -109 -3 -113 -24 -113 -35 0 -35 -16 0 -47 19 -16 34
-36 35 -44 0 -8 12 -79 25 -159 40 -235 45 -279 30 -284 -7 -3 -15 -1 -19 5
-3 6 -13 8 -21 5 -9 -4 -22 -1 -29 5 -8 6 -25 8 -38 5 -18 -4 -23 -11 -19 -27
4 -15 0 -22 -15 -26 -17 -4 -20 -9 -12 -23 14 -27 13 -34 -15 -64 -24 -26 -24
-28 -9 -64 8 -20 19 -39 25 -41 15 -5 61 -105 83 -179 15 -47 17 -71 10 -99
-12 -48 -36 -63 -63 -39 -17 16 -23 17 -36 6 -12 -10 -19 -10 -27 -2 -8 8 -16
5 -28 -11 -15 -18 -20 -19 -33 -9 -10 9 -17 10 -22 2 -12 -20 -27 -10 -21 15
5 19 2 25 -9 25 -12 0 -16 -10 -15 -37 0 -21 0 -47 -1 -58 -5 -53 13 -78 24
-34 4 16 11 20 23 15 10 -4 21 -1 25 6 12 20 31 -4 34 -44 2 -18 3 -39 4 -45
1 -7 5 -13 10 -13 5 0 7 17 4 39 -3 22 -1 41 6 45 6 4 8 20 4 39 -3 18 -2 29
2 25 12 -11 15 -149 4 -169 -5 -10 -23 -26 -40 -36 -20 -12 -29 -24 -25 -35 2
-10 0 -21 -5 -24 -5 -3 -7 -9 -4 -14 3 -5 1 -11 -5 -15 -6 -4 -8 -10 -5 -15 3
-5 1 -12 -5 -15 -8 -5 -7 -11 1 -21 8 -10 8 -14 1 -14 -6 0 -16 9 -23 21 -21
39 -35 -1 -30 -84 1 -12 7 -17 19 -15 23 3 42 -9 42 -28 0 -12 -7 -14 -30 -9
-23 5 -30 3 -30 -9 0 -26 -38 -39 -89 -31 -64 10 -131 8 -147 -6 -7 -6 -22
-34 -33 -62 -10 -29 -22 -60 -26 -69 -5 -14 -1 -17 22 -15 19 1 27 -2 25 -11
-2 -9 4 -11 18 -7 20 6 21 4 16 -82 -2 -48 0 -95 5 -104 5 -9 11 -34 13 -54 3
-21 10 -43 17 -49 9 -8 10 -6 6 11 -6 25 50 92 71 85 7 -2 10 2 6 11 -3 8 0
18 7 23 7 4 10 3 5 -4 -3 -5 -2 -12 3 -14 7 -2 7 -17 0 -43 -18 -75 -19 -84
-9 -90 7 -4 4 -17 -7 -36 -20 -33 -38 -39 -30 -9 3 12 0 31 -7 44 -9 19 -14
21 -24 10 -15 -17 -15 -25 1 -21 7 1 12 -8 12 -23 0 -14 6 -36 14 -49 7 -13
11 -34 8 -47 -2 -13 0 -21 4 -18 17 10 9 -12 -21 -59 -16 -26 -34 -47 -39 -47
-16 0 -22 18 -9 23 7 2 11 7 7 10 -3 4 -23 -11 -45 -33 -21 -22 -44 -39 -50
-40 -7 0 -15 -7 -18 -17 -6 -14 -8 -14 -21 3 -15 19 -15 19 -19 -21 -1 -6 -7
-17 -14 -25 -6 -8 -23 -30 -38 -47 -27 -35 -51 -42 -60 -19 -8 20 -36 8 -30
-13 3 -9 2 -22 -3 -30 -7 -11 -14 -9 -36 13 l-28 28 5 -26 c3 -14 3 -26 0 -26
-11 0 -60 65 -55 74 12 18 -51 -6 -65 -25 -19 -27 -42 -24 -42 5 0 35 -14 40
-52 19 -18 -9 -36 -17 -40 -18 -3 0 -10 -3 -14 -8 -13 -13 -38 -8 -27 6 6 6
13 23 16 36 4 18 1 24 -14 28 -14 4 -18 11 -14 22 4 9 9 21 12 28 2 6 -4 16
-15 22 -15 8 -20 20 -18 53 0 28 -4 47 -14 55 -23 17 -28 376 -6 453 16 60 25
96 57 245 12 55 30 109 39 120 10 11 21 31 25 45 4 14 14 33 23 43 9 11 11 17
4 17 -7 0 -12 8 -11 18 0 10 3 12 6 5 5 -14 53 36 53 55 0 6 9 14 21 17 35 11
89 66 89 90 0 12 10 34 21 49 18 23 20 31 10 52 -15 33 -14 71 1 76 9 3 4 16
-14 40 -15 20 -24 38 -21 42 3 3 0 12 -6 20 -7 8 -11 23 -9 34 2 10 -3 27 -11
36 -11 13 -11 20 -3 28 7 7 12 20 12 31 0 21 -24 49 -34 40 -3 -4 -6 -2 -6 4
0 5 3 13 7 16 3 4 7 17 8 30 1 12 5 32 9 44 5 16 2 23 -13 28 -12 3 -22 19
-26 38 -10 47 -43 154 -54 176 -6 10 -12 34 -15 54 -5 38 -27 87 -50 110 -8 8
-41 18 -72 22 -32 4 -68 14 -81 22 -29 19 -133 42 -194 43 -53 0 -241 -31
-346 -58 l-72 -18 -73 27 c-90 34 -191 39 -207 12 -6 -10 -11 -15 -11 -10 0
10 -60 -21 -87 -46 -12 -11 -20 -24 -16 -30 3 -5 0 -7 -8 -5 -22 8 -73 -41
-79 -76 -4 -26 -10 -31 -32 -31 -15 0 -33 -6 -39 -12 -14 -14 -69 -18 -69 -5
0 4 -21 7 -47 7 -39 0 -47 3 -45 17 4 25 -16 31 -28 8 -14 -27 -50 -27 -50 1
0 11 -4 18 -9 15 -5 -3 -11 8 -15 24 -6 30 -6 30 -26 10 -19 -19 -50 -18 -50
2 0 5 7 23 16 40 9 17 14 39 11 49 -3 11 -1 17 4 14 9 -6 -9 54 -22 70 -13 17
-22 85 -11 85 5 0 9 29 8 70 -2 38 0 74 3 79 4 5 27 19 51 30 25 11 76 49 115
85 38 36 73 66 77 66 4 0 12 9 18 21 9 16 8 24 -4 38 -10 11 -12 21 -6 31 5 8
10 11 10 6 0 -5 6 -4 13 2 7 6 25 12 40 14 15 2 40 17 56 32 16 16 34 26 39
22 11 -6 38 51 29 61 -9 8 -38 -17 -32 -27 3 -4 -2 -10 -10 -13 -9 -4 -12 -1
-8 9 3 7 1 14 -4 14 -5 0 -19 9 -31 20 -12 12 -22 16 -22 10 0 -5 9 -18 20
-27 11 -10 20 -25 20 -34 0 -17 -39 -48 -68 -54 -45 -9 -95 -39 -110 -65 -19
-34 -27 -36 -48 -16 -12 12 -7 20 39 52 77 57 96 65 117 54 30 -16 34 -12 9 9
-24 19 -24 19 -5 40 19 21 19 21 -12 33 -20 8 -32 19 -32 30 0 10 4 18 9 18 4
0 20 17 35 39 25 36 26 41 14 80 -7 22 -19 41 -25 41 -46 0 51 69 167 120 90
39 156 76 189 106 18 17 23 29 18 51 -5 23 1 36 32 71 31 34 55 48 118 71 74
25 133 59 133 76 0 3 -9 4 -19 0 -53 -16 30 94 88 118 20 9 29 17 22 21 -20
13 -12 24 26 37 39 13 63 31 63 48 0 5 9 12 19 16 11 3 18 12 15 18 -2 7 8 17
24 23 27 10 52 54 31 54 -5 0 -9 6 -9 14 0 16 90 41 120 33 11 -3 23 -1 26 4
3 5 -4 9 -15 9 -25 0 -27 13 -6 30 8 7 12 16 9 21 -2 5 7 11 21 15 27 7 31 14
15 30 -6 6 -1 10 16 12 36 3 43 9 37 31 -5 20 -3 21 90 29 13 2 9 -7 -18 -35z
m1460 8 c20 -65 135 -161 193 -161 26 0 26 -17 0 -33 -33 -21 -128 41 -173
113 -27 43 -47 100 -35 100 5 0 11 -9 15 -19z m201 -117 c-4 -9 -9 -15 -11
-12 -3 3 -3 13 1 22 4 9 9 15 11 12 3 -3 3 -13 -1 -22z m-356 -235 c0 -28 33
-89 66 -122 46 -46 90 -61 148 -48 27 6 51 9 54 6 10 -10 -30 -55 -55 -61 -51
-13 -153 41 -197 104 -27 40 -50 162 -28 148 7 -4 12 -16 12 -27z m259 -110
c-20 -12 -21 -5 -7 27 13 28 13 28 16 5 2 -13 -2 -27 -9 -32z m-220 -103 c7
-8 8 -17 3 -20 -6 -3 -12 3 -15 14 -6 24 -4 25 12 6z m-97 -271 c46 -50 118
-95 152 -95 9 0 28 8 43 17 25 17 26 17 18 -7 -4 -14 -9 -26 -10 -28 -7 -8
-78 -14 -108 -8 -51 9 -150 118 -161 176 -6 31 -5 33 6 15 7 -10 34 -42 60
-70z m-6837 55 c3 -5 2 -10 -4 -10 -5 0 -13 5 -16 10 -3 6 -2 10 4 10 5 0 13
-4 16 -10z m7016 -93 c-17 -17 -22 -2 -9 29 11 28 12 29 16 5 2 -13 -1 -28 -7
-34z m-6501 -662 c0 -25 -27 -17 -32 10 -4 21 -3 23 13 14 11 -5 19 -16 19
-24z m3703 15 c-6 -24 -23 -37 -23 -18 0 12 18 38 26 38 1 0 0 -9 -3 -20z
m-3483 -1079 c229 -66 357 -139 591 -337 143 -121 278 -297 319 -417 50 -145
83 -484 66 -669 l-8 -78 -106 0 c-133 0 -161 -8 -275 -76 -126 -74 -233 -186
-286 -298 -54 -112 -65 -169 -57 -286 l7 -97 -89 -41 c-323 -150 -653 -148
-1012 7 -194 83 -467 309 -579 478 -15 23 -40 85 -54 137 -15 53 -38 140 -53
194 -25 89 -27 110 -25 256 2 202 19 305 70 434 85 213 154 323 272 438 184
179 463 323 729 378 111 23 125 24 240 22 89 -2 126 -9 250 -45z m3666 34
c228 -40 397 -108 607 -244 158 -103 265 -215 347 -361 80 -141 149 -310 161
-393 5 -34 12 -138 15 -232 l6 -170 -46 -179 c-56 -216 -66 -240 -143 -337
-159 -199 -420 -381 -668 -464 -297 -101 -613 -80 -888 57 -77 38 -79 40 -74
71 17 95 17 127 3 194 -34 166 -140 318 -289 416 -147 97 -156 100 -300 105
l-127 4 -8 27 c-4 14 -7 105 -6 201 1 188 25 371 66 500 35 111 111 222 238
350 228 231 432 355 700 429 166 46 257 51 406 26z m-6276 -305 c0 -14 37 -12
44 3 3 6 5 3 3 -8 -2 -16 -9 -20 -37 -19 -51 3 -52 3 -38 19 15 17 28 19 28 5z
m8440 -10 c10 0 21 6 23 13 4 9 8 9 16 -3 14 -20 7 -26 -31 -25 -25 1 -33 6
-35 20 -2 11 0 14 3 8 3 -7 14 -13 24 -13z m-8600 -21 c0 -5 6 -9 14 -9 16 0
42 -28 33 -36 -3 -3 -19 2 -36 11 -18 9 -37 13 -43 9 -8 -5 -9 -2 -5 10 4 10
7 22 7 27 0 4 7 6 15 3 8 -4 15 -10 15 -15z m8819 -22 c1 -5 -3 -6 -8 -3 -5 3
-26 -1 -46 -10 -20 -8 -40 -13 -43 -10 -8 8 19 36 35 36 8 0 22 7 31 16 15 15
16 15 23 -2 4 -11 8 -23 8 -27z m-8805 -31 c13 5 46 -50 46 -79 0 -26 48 -69
70 -62 16 5 20 2 21 -17 6 -142 5 -144 -33 -124 -15 8 -29 12 -32 8 -13 -13
-4 -21 27 -24 31 -3 32 -5 33 -50 2 -40 -1 -48 -16 -48 -27 0 -30 22 -6 42 20
16 20 17 3 24 -10 3 -28 2 -41 -4 -29 -13 -73 -4 -79 16 -3 10 -17 58 -31 107
-24 81 -28 110 -24 180 0 11 8 28 16 38 14 15 17 16 24 3 5 -8 15 -13 22 -10z
m8810 11 c18 18 -3 -169 -29 -254 -26 -87 -29 -91 -59 -96 -17 -2 -39 0 -49 5
-27 14 -46 3 -40 -21 3 -12 9 -18 14 -15 5 3 6 -2 3 -10 -10 -26 -37 -20 -31
6 4 12 1 28 -5 35 -15 18 7 43 38 43 23 0 31 10 17 23 -3 4 -17 0 -30 -8 -25
-17 -25 -17 -25 50 0 90 1 95 19 88 11 -4 14 -3 9 5 -4 7 -2 10 7 6 21 -8 50
43 50 89 0 24 3 34 8 26 6 -10 10 -9 15 5 4 11 14 16 26 13 11 -3 22 1 25 9 4
10 9 11 18 4 6 -5 15 -7 19 -3z m-1058 -179 c-4 -18 -9 -43 -10 -56 -5 -37
-16 -38 -12 -1 4 42 16 89 23 89 3 0 2 -15 -1 -32z m-6745 -5 c1 -16 3 -38 4
-50 1 -12 -1 -20 -6 -18 -4 3 -7 13 -7 23 0 9 -3 29 -7 45 -5 17 -3 27 4 27 6
0 12 -12 12 -27z m-925 -229 c0 -1 -13 -4 -28 -8 -25 -6 -25 -5 -15 18 11 23
13 23 28 8 9 -9 16 -17 15 -18z m8628 -7 c7 -6 4 -7 -7 -3 -10 3 -25 6 -33 6
-11 0 -10 4 4 20 16 19 17 20 21 3 2 -10 8 -22 15 -26z m-8389 -297 c-4 -6 7
-13 25 -16 18 -4 39 -19 52 -37 13 -18 16 -27 7 -22 -11 6 -12 5 -1 -6 6 -7
12 -20 12 -28 -1 -12 -6 -10 -20 8 -11 13 -20 20 -20 17 0 -4 -16 8 -35 25
-33 31 -47 69 -24 69 5 0 7 -5 4 -10z m8109 -18 c2 -4 -9 -22 -25 -40 -16 -18
-29 -29 -29 -26 0 3 -9 -4 -20 -17 -14 -18 -19 -20 -20 -8 0 8 6 21 13 28 10
11 9 12 -2 6 -8 -5 -7 2 5 20 22 33 67 55 78 37z m26 -142 c-6 -11 -13 -20
-16 -20 -2 0 0 9 6 20 6 11 13 20 16 20 2 0 0 -9 -6 -20z m-8157 -5 c4 -8 2
-17 -3 -20 -6 -4 -10 3 -10 14 0 25 6 27 13 6z m3997 -548 c25 -11 52 -24 61
-28 9 -4 38 4 70 18 30 14 61 26 69 28 8 2 29 6 45 9 27 6 26 5 -7 -9 -20 -9
-39 -23 -42 -30 -5 -15 6 -13 60 11 39 17 192 21 221 5 12 -6 55 -11 95 -11
42 0 82 -5 93 -13 15 -9 52 -11 139 -7 102 4 119 3 127 -11 14 -28 59 -50 99
-51 24 0 45 -7 55 -18 15 -17 15 -19 -2 -29 -16 -9 -15 -10 9 -11 32 0 43 -14
29 -37 -6 -12 -4 -28 10 -55 24 -47 24 -58 -1 -58 -22 0 -28 -28 -9 -47 8 -8
7 -16 -2 -30 -9 -16 -9 -34 4 -89 34 -145 36 -255 10 -364 -45 -180 -132 -255
-383 -328 -262 -76 -376 -92 -673 -92 -245 0 -366 12 -526 51 -154 38 -305 90
-363 125 -160 97 -221 311 -162 574 9 41 19 85 21 98 3 12 1 22 -6 22 -14 0
-15 37 -1 45 20 12 10 35 -15 35 -31 0 -31 10 -1 59 17 27 21 42 14 49 -17 17
-1 42 29 43 17 1 21 3 11 6 -22 6 -23 26 -3 43 12 10 21 10 41 1 14 -6 23 -7
20 -2 -3 5 7 11 22 14 25 5 65 35 73 54 2 4 56 6 119 3 80 -4 125 -1 147 7 18
7 62 13 98 13 37 0 76 5 88 11 33 18 169 12 235 -11 l57 -19 -30 24 c-16 13
-36 26 -45 28 -8 2 1 2 20 0 19 -3 55 -14 80 -26z m-875 -1162 c44 -8 82 -14
84 -15 3 0 -9 -15 -25 -32 -17 -18 -41 -51 -54 -73 -24 -42 -89 -115 -102
-115 -8 0 -9 203 -1 233 5 20 -1 20 98 2z m2005 -110 c0 -69 -4 -125 -9 -125
-13 0 -62 59 -91 110 -14 23 -38 56 -54 71 -17 16 -26 32 -22 36 4 5 38 13 74
19 113 19 102 31 102 -111z m-3969 -651 c13 -16 33 -19 24 -4 -10 15 38 11 59
-5 11 -8 27 -15 35 -15 9 0 43 -25 75 -55 33 -30 61 -55 63 -55 2 0 20 -11 41
-24 29 -18 43 -21 56 -14 14 8 25 3 52 -26 19 -20 37 -36 41 -36 4 0 2 5 -5
12 -17 17 -15 48 3 48 9 0 20 -10 25 -22 5 -13 18 -34 29 -48 20 -24 20 -24
14 -2 -3 12 -9 22 -14 22 -5 0 -9 7 -9 15 0 17 26 20 36 4 4 -8 9 -7 16 2 7
11 9 9 5 -6 -3 -17 2 -20 31 -22 20 -1 39 -8 43 -15 4 -8 21 -29 38 -48 17
-19 31 -38 31 -41 0 -3 11 -19 25 -35 39 -44 109 -152 140 -216 15 -32 35 -65
44 -75 9 -10 43 -47 75 -83 32 -36 73 -81 91 -100 32 -34 75 -106 75 -123 0
-8 43 -60 159 -191 63 -71 249 -319 270 -359 8 -15 18 -27 22 -27 5 0 19 -16
33 -37 18 -26 23 -44 19 -65 -4 -18 -1 -28 7 -28 6 0 10 -5 8 -12 -2 -6 4 -20
14 -30 10 -10 16 -23 13 -28 -4 -6 -2 -10 3 -10 9 0 23 -34 19 -44 -1 -2 5
-12 14 -22 20 -23 59 -99 59 -114 0 -6 13 -30 29 -54 16 -23 31 -53 33 -66 1
-14 8 -25 13 -25 6 -1 20 -6 33 -13 12 -7 27 -10 32 -7 6 3 10 2 10 -2 0 -5
20 -40 46 -78 25 -40 40 -71 34 -73 -6 -2 -4 -10 7 -17 15 -12 16 -17 6 -34
-7 -12 -13 -28 -13 -36 0 -22 -71 -9 -140 25 -65 33 -196 75 -262 84 l-47 7
59 87 c66 98 77 127 60 147 -19 23 -42 18 -125 -25 -42 -22 -81 -37 -86 -34
-5 3 -9 -1 -9 -9 0 -8 -17 -26 -38 -39 -57 -38 -67 -25 -76 94 -7 98 -35 221
-54 240 -18 18 -53 -3 -72 -45 -11 -23 -29 -74 -40 -113 -11 -40 -26 -72 -33
-71 -36 1 -48 -4 -45 -20 2 -14 -3 -17 -27 -16 -55 5 -62 9 -116 58 -63 56
-107 85 -131 85 -9 0 -26 -12 -38 -27 -16 -20 -23 -24 -32 -15 -7 7 -19 12
-28 12 -30 0 -195 -95 -238 -137 -7 -7 -16 -13 -20 -13 -4 0 -21 -13 -38 -28
-18 -15 -42 -34 -54 -42 -37 -25 -83 -62 -122 -100 -33 -33 -54 -41 -198 -79
-103 -28 -180 -43 -216 -42 -47 0 -57 -3 -61 -18 -3 -12 -27 -27 -66 -41 -34
-12 -70 -29 -80 -38 -9 -8 -26 -16 -36 -17 -11 -1 -27 -7 -36 -15 -13 -11 -21
-11 -35 -2 -14 9 -21 8 -30 -3 -7 -8 -28 -17 -49 -21 -20 -4 -58 -15 -84 -27
-26 -11 -50 -17 -53 -14 -12 11 26 75 62 106 22 18 29 28 17 22 -12 -6 -25
-16 -28 -21 -3 -6 -10 -10 -15 -10 -9 0 21 103 31 108 4 2 5 11 2 21 -3 11 5
54 17 97 29 102 100 375 150 579 22 88 44 168 50 177 9 17 73 304 85 388 4 25
24 122 45 215 22 94 47 214 56 268 10 53 21 97 26 97 4 0 8 9 8 19 0 11 5 23
10 26 6 4 7 13 1 24 -7 12 -4 45 9 102 23 104 80 322 86 328 2 2 13 -4 24 -14
27 -24 36 -13 15 18 -16 24 -15 25 4 20 11 -3 26 -11 32 -19z m5854 0 c-23
-35 -13 -40 24 -13 17 12 32 21 35 18 2 -2 13 -47 24 -99 12 -52 33 -144 46
-204 23 -98 24 -110 10 -131 -10 -16 -12 -25 -5 -30 6 -3 11 -15 11 -26 0 -10
4 -19 9 -19 11 0 28 -44 36 -95 4 -22 24 -112 45 -200 48 -199 71 -320 64
-338 -8 -22 55 -319 70 -331 18 -14 215 -749 230 -858 3 -18 12 -55 21 -82 8
-27 14 -51 12 -53 -2 -1 -19 8 -37 22 -50 37 -47 31 9 -23 28 -26 53 -60 57
-75 l6 -28 -38 17 c-22 9 -64 23 -94 31 -30 8 -62 21 -71 29 -11 10 -18 11
-27 2 -8 -8 -17 -7 -36 6 -15 9 -26 14 -26 11 0 -2 -26 8 -57 24 -32 16 -74
34 -94 40 -22 7 -39 20 -42 31 -4 16 -14 20 -54 19 -44 -1 -114 15 -315 71
-62 17 -93 35 -138 80 -10 11 -68 56 -90 70 -12 8 -36 27 -54 42 -17 15 -34
28 -38 28 -4 0 -13 6 -20 13 -43 42 -208 137 -238 137 -9 0 -22 -6 -29 -12
-11 -11 -13 -10 -9 2 5 17 -19 39 -43 40 -21 0 -104 -56 -148 -100 -19 -19
-47 -36 -61 -37 -85 -8 -85 -8 -82 10 2 9 -3 17 -11 17 -24 0 -43 32 -71 121
-25 81 -49 119 -73 119 -36 0 -68 -119 -72 -265 -3 -103 -6 -119 -20 -96 -5 7
-14 10 -20 7 -10 -7 -63 23 -86 48 -13 15 -162 86 -179 86 -22 0 -39 -28 -32
-53 3 -13 30 -61 60 -108 l55 -84 -87 -21 c-91 -23 -195 -60 -253 -89 -44 -24
-119 -29 -119 -9 0 8 -6 23 -12 35 -11 17 -10 22 4 33 10 7 15 16 12 19 -3 3
13 36 35 74 38 63 72 92 116 97 6 0 12 12 13 26 2 13 17 43 33 66 16 24 29 48
29 54 0 14 38 91 55 110 8 8 14 18 15 22 8 35 14 48 22 48 5 0 7 4 3 10 -3 5
3 18 13 28 10 10 16 24 14 30 -2 7 1 12 7 12 6 0 11 11 11 25 0 40 210 342
341 491 120 136 159 183 159 191 0 17 43 89 75 123 18 19 59 64 91 100 32 36
66 73 75 83 9 10 29 43 44 75 31 64 101 172 140 216 14 16 25 32 25 35 0 3 14
22 31 41 17 19 34 40 38 48 4 7 23 14 43 15 29 2 34 5 31 22 -4 15 -2 17 5 6
7 -9 12 -10 16 -2 10 16 36 13 36 -4 0 -8 -4 -15 -9 -15 -5 0 -11 -10 -14 -22
-6 -22 -6 -22 14 2 11 14 24 35 29 48 5 12 16 22 25 22 18 0 20 -31 3 -48 -7
-7 -9 -12 -5 -12 4 0 22 16 41 36 27 29 38 34 52 26 13 -7 27 -4 56 14 21 13
39 24 41 24 2 0 30 25 63 55 32 30 66 55 75 55 8 0 24 7 35 15 21 16 69 20 59
5 -3 -5 -2 -10 4 -10 5 0 13 5 16 11 6 8 38 26 54 28 2 1 -4 -11 -14 -25z"/>
<path d="M870 9470 c-13 -8 -12 -10 3 -10 9 0 17 5 17 10 0 12 -1 12 -20 0z"/>
<path d="M1198 9173 c7 -3 16 -2 19 1 4 3 -2 6 -13 5 -11 0 -14 -3 -6 -6z"/>
<path d="M8798 9173 c7 -3 16 -2 19 1 4 3 -2 6 -13 5 -11 0 -14 -3 -6 -6z"/>
<path d="M2380 8279 l-35 -30 67 3 c76 4 107 21 67 36 -58 22 -64 22 -99 -9z"/>
<path d="M2940 7873 c0 -6 -13 -16 -30 -23 -39 -16 -39 -32 -1 -19 28 10 48
36 36 47 -3 3 -5 1 -5 -5z"/>
<path d="M2598 7783 c7 -3 16 -2 19 1 4 3 -2 6 -13 5 -11 0 -14 -3 -6 -6z"/>
<path d="M3205 7430 c3 -5 11 -10 16 -10 6 0 7 5 4 10 -3 6 -11 10 -16 10 -6
0 -7 -4 -4 -10z"/>
<path d="M630 6889 c0 -5 5 -7 10 -4 6 3 10 8 10 11 0 2 -4 4 -10 4 -5 0 -10
-5 -10 -11z"/>
<path d="M692 6570 c0 -14 2 -19 5 -12 2 6 2 18 0 25 -3 6 -5 1 -5 -13z"/>
<path d="M690 6500 c0 -5 5 -10 11 -10 5 0 7 5 4 10 -3 6 -8 10 -11 10 -2 0
-4 -4 -4 -10z"/>
<path d="M765 6440 c3 -5 8 -10 11 -10 2 0 4 5 4 10 0 6 -5 10 -11 10 -5 0 -7
-4 -4 -10z"/>
<path d="M697 6414 c-8 -8 3 -34 15 -34 7 0 6 5 -1 13 -6 8 -8 17 -4 20 3 4 4
7 1 7 -2 0 -7 -3 -11 -6z"/>
<path d="M770 6381 c0 -6 5 -13 10 -16 6 -4 7 -11 4 -17 -4 -6 -1 -9 6 -6 22
7 22 22 0 36 -11 7 -20 8 -20 3z"/>
<path d="M706 6342 c-3 -5 1 -15 8 -21 11 -10 14 -9 12 3 -3 21 -13 29 -20 18z"/>
<path d="M887 6033 c-4 -3 -7 -11 -7 -17 0 -6 5 -5 12 2 6 6 9 14 7 17 -3 3
-9 2 -12 -2z"/>
<path d="M850 6000 c0 -5 9 -14 20 -20 19 -10 20 -10 8 9 -13 22 -28 28 -28
11z"/>
<path d="M923 5842 c-8 -5 -9 -13 -3 -22 7 -12 10 -12 16 3 8 21 3 29 -13 19z"/>
<path d="M906 5782 c-8 -24 -3 -37 12 -31 4 2 5 15 2 29 l-6 25 -8 -23z"/>
<path d="M1095 5770 c-3 -5 3 -10 15 -10 12 0 18 5 15 10 -3 6 -10 10 -15 10
-5 0 -12 -4 -15 -10z"/>
<path d="M1010 5060 c6 -11 13 -20 16 -20 2 0 0 9 -6 20 -6 11 -13 20 -16 20
-2 0 0 -9 6 -20z"/>
<path d="M7553 8294 c-58 -25 -33 -44 60 -44 52 0 60 11 22 28 -14 6 -25 16
-25 22 0 13 -18 12 -57 -6z"/>
<path d="M7398 7783 c7 -3 16 -2 19 1 4 3 -2 6 -13 5 -11 0 -14 -3 -6 -6z"/>
<path d="M6770 7419 l-25 -20 33 16 c17 8 32 18 32 20 0 10 -16 4 -40 -16z"/>
<path d="M9370 6890 c0 -5 5 -10 11 -10 5 0 7 5 4 10 -3 6 -8 10 -11 10 -2 0
-4 -4 -4 -10z"/>
<path d="M9311 6564 c0 -11 3 -14 6 -6 3 7 2 16 -1 19 -3 4 -6 -2 -5 -13z"/>
<path d="M9305 6500 c-3 -5 -1 -10 4 -10 6 0 11 5 11 10 0 6 -2 10 -4 10 -3 0
-8 -4 -11 -10z"/>
<path d="M9240 6439 c0 -5 5 -7 10 -4 6 3 10 8 10 11 0 2 -4 4 -10 4 -5 0 -10
-5 -10 -11z"/>
<path d="M9303 6398 c-2 -16 1 -18 10 -9 7 7 8 14 1 21 -6 6 -10 2 -11 -12z"/>
<path d="M9230 6375 c-6 -8 -10 -19 -8 -26 2 -6 9 0 16 15 13 29 10 33 -8 11z"/>
<path d="M9287 6329 c-4 -16 -3 -18 9 -8 16 13 19 29 5 29 -5 0 -11 -9 -14
-21z"/>
<path d="M9125 6201 c-3 -6 -13 -7 -23 -4 -15 6 -15 4 2 -15 22 -25 30 -28 23
-8 -4 9 1 16 11 18 12 2 13 6 5 11 -6 4 -14 3 -18 -2z"/>
<path d="M9116 6027 c3 -10 9 -15 12 -12 3 3 0 11 -7 18 -10 9 -11 8 -5 -6z"/>
<path d="M9141 5994 c-12 -14 -11 -16 4 -12 10 1 20 9 23 16 5 17 -10 15 -27
-4z"/>
<path d="M9085 5818 c4 -13 7 -33 7 -45 0 -13 5 -23 10 -23 6 0 8 11 4 28 -4
15 -8 35 -9 45 -1 9 -5 17 -10 17 -5 0 -6 -10 -2 -22z"/>
<path d="M8890 5772 c0 -5 7 -13 16 -16 10 -4 14 -1 12 6 -5 15 -28 23 -28 10z"/>
<path d="M8876 5733 c-6 -14 -5 -15 5 -6 7 7 10 15 7 18 -3 3 -9 -2 -12 -12z"/>
<path d="M8994 5058 l-19 -23 23 19 c12 11 22 21 22 23 0 8 -8 2 -26 -19z"/>
<path d="M2910 5637 c-137 -9 -230 -26 -393 -73 -139 -40 -191 -67 -255 -133
-79 -81 -104 -172 -90 -328 9 -101 23 -129 90 -183 72 -58 137 -86 243 -104
201 -35 306 -32 528 19 117 26 196 58 297 118 81 48 128 93 188 177 l47 65 -1
80 c-2 96 -18 138 -76 201 -120 131 -295 180 -578 161z m-436 -248 c35 -16 51
-60 37 -100 -27 -77 -6 -126 73 -173 81 -47 100 -114 47 -167 -39 -38 -69 -37
-159 6 -55 26 -79 45 -104 80 -52 73 -61 116 -43 204 26 129 79 182 149 150z"/>
<path d="M6905 5640 c-161 -15 -270 -59 -359 -144 -69 -67 -84 -101 -92 -208
l-6 -83 40 -61 c107 -164 288 -269 559 -324 155 -31 259 -35 393 -15 187 27
278 68 358 159 66 76 71 284 9 402 -22 41 -105 118 -152 142 -115 57 -366 117
-535 127 -58 4 -112 8 -120 9 -8 2 -51 0 -95 -4z m723 -265 c44 -36 64 -96 65
-190 1 -136 -43 -189 -215 -259 -35 -14 -39 -13 -70 8 -18 12 -39 35 -47 50
-12 25 -11 33 3 62 8 18 35 47 58 63 90 62 104 90 82 170 -15 50 -6 81 28 105
32 23 62 20 96 -9z"/>
<path d="M705 5960 c-3 -5 6 -15 20 -22 22 -10 28 -9 35 2 11 17 12 16 -22 24
-15 3 -30 2 -33 -4z"/>
<path d="M9268 5962 c-11 -5 -14 -12 -9 -21 7 -10 13 -11 30 -2 34 19 16 38
-21 23z"/>
<path d="M4405 4153 c-14 -21 -18 -49 -18 -124 -1 -105 8 -129 49 -129 37 0
57 40 49 99 -4 29 -2 65 6 90 17 56 1 91 -40 91 -20 0 -34 -8 -46 -27z"/>
<path d="M5530 4165 c-9 -11 -10 -28 -5 -58 5 -23 7 -70 6 -105 -2 -74 10
-102 44 -102 44 0 57 37 53 144 -2 75 -7 98 -22 115 -22 25 -58 27 -76 6z"/>
</g>
</svg>
